<?xml version="1.0" encoding="iso-8859-1"?>
<!-- Generator: Adobe Illustrator 18.1.1, SVG Export Plug-In . SVG Version: 6.00 Build 0)  -->
<svg version="1.1" id="Capa_1" xmlns="http://www.w3.org/2000/svg" xmlns:xlink="http://www.w3.org/1999/xlink" x="0px" y="0px"
	 viewBox="0 0 58.945 58.945" style="enable-background:new 0 0 58.945 58.945;" xml:space="preserve">
<g>
	<g>
		<path style="fill:#010002;" d="M32.95,50.937h-1.828l-0.386-8.973L30.54,31.255v-8.924l0.192-0.462
			c0.314,1.39,0.396,2.976,0.475,4.524c0.041,0.827,0.08,1.609,0.154,2.357c0.195,1.983,1.88,3.022,3.441,3.022
			c0.907,0,1.736-0.342,2.274-0.935c0.517-0.57,0.743-1.333,0.661-2.157c-0.303-17.312-8.287-18.607-9.884-18.69l-0.104-0.006
			l-1.271,0.382c1.719-0.936,2.889-2.758,2.889-4.849C29.367,2.475,26.892,0,23.85,0s-5.516,2.475-5.516,5.517
			c0,2.19,1.286,4.079,3.139,4.969l-1.983-0.422l-0.094,0.009c-3.16,0.323-10.086,5.268-10.083,17.802
			c-0.086,0.874,0.141,1.637,0.657,2.207c0.539,0.593,1.367,0.934,2.275,0.934c1.562,0,3.245-1.037,3.44-3.022
			c0.074-0.739,0.114-1.51,0.157-2.326c0.08-1.543,0.163-3.134,0.481-4.537l0.184,0.442v8.914L16.31,41.195l-0.576,13.452
			c0,0.353,0.061,0.703,0.182,1.048c0.03,1.732,1.45,3.133,3.19,3.133c1.759,0,3.19-1.432,3.189-3.146l1.131-15.958h0.151
			l0.527,6.129l0.362,5.083h-0.92v2.058h1.066l0.135,1.891c0,0.441,0.095,0.877,0.282,1.295c0.356,1.425,1.617,2.414,3.09,2.414
			c1.759,0,3.189-1.432,3.189-3.215l-0.103-2.385h0.896c0.041,0.018,0.086,0.047,0.127,0.062c0.078,0.033,0.158,0.051,0.237,0.051
			c0.124,0,0.244-0.044,0.347-0.113h0.138v-0.142c0.024-0.035,0.051-0.069,0.067-0.108c0.086-0.197,0.047-0.412-0.067-0.576
			C32.95,52.168,32.95,50.937,32.95,50.937z M36.545,28.751c0.053,0.534-0.066,0.965-0.354,1.282
			c-0.312,0.342-0.813,0.538-1.383,0.538c-0.99,0-2.115-0.606-2.246-1.938c-0.072-0.72-0.11-1.487-0.151-2.3
			c-0.002-0.067-0.009-0.135-0.011-0.202h4.029C36.488,26.959,36.527,27.829,36.545,28.751z M19.572,5.037
			c0.24-2.153,2.07-3.833,4.285-3.833c2.216,0,4.046,1.68,4.286,3.833H19.572z M20.54,8.274h6.635
			c-0.793,0.951-1.985,1.559-3.318,1.559C22.525,9.834,21.332,9.226,20.54,8.274z M24.345,11.01l-0.171,0.052l-0.163-0.035
			C24.122,11.024,24.234,11.019,24.345,11.01z M19.436,11.281l4.789,1.02l3.674-1.103c0.752,0.06,2.621,0.417,4.429,2.391H15.509
			C17.01,12.12,18.505,11.411,19.436,11.281z M14.497,27.877c-0.131,1.332-1.256,1.938-2.245,1.938
			c-0.569,0-1.074-0.196-1.385-0.539c-0.286-0.317-0.405-0.747-0.35-1.34c0-0.624,0.023-1.222,0.057-1.805h4.045
			C14.587,26.737,14.551,27.325,14.497,27.877z M21.103,55.639c0,0.954-0.675,1.75-1.571,1.942h-0.835
			c-0.896-0.192-1.571-0.99-1.57-1.955l0.008-0.131l-0.049-0.123c-0.094-0.238-0.142-0.482-0.143-0.699l0.103-2.407h4.297
			L21.103,55.639z M21.624,48.279h-4.407l0.229-5.314h4.555L21.624,48.279z M24.792,39.725l-0.429-4.964h-1.732l-0.273,3.18
			l-0.127,1.784h-4.683l0.097-5.313h11.756l0.098,5.313H24.792z M29.347,31.447H17.699l0.018-0.947v-4.369h11.626v5.134
			L29.347,31.447z M25.489,48.278L25.489,48.278l-0.178-2.519l-0.241-2.797h4.513l0.228,5.315h-4.322V48.278z M28.128,57.394
			c-0.931,0-1.726-0.637-1.934-1.546l-0.042-0.123c-0.129-0.272-0.194-0.556-0.196-0.884l-0.131-1.848h4.189l0.103,2.409
			C30.116,56.502,29.225,57.394,28.128,57.394z M29.343,22.092v0.803H17.716v-1.558l-0.988-2.375l-0.632,0.598
			c-0.35,0.33-0.617,0.656-0.781,0.871L15.24,20.53l-0.029,0.121c-0.178,0.719-0.288,1.476-0.369,2.245h-3.891
			c0.383-2.085,0.99-3.846,1.718-5.316h22.044c0.562,1.427,1.035,3.18,1.364,5.316h-3.938c-0.146-1.068-0.379-2.09-0.781-3
			l-0.565-1.283L29.343,22.092z"/>
		<path style="fill:#010002;" d="M42.496,47.63c0.018,0.32,0.283,0.569,0.602,0.569c0.01,0,0.021,0,0.031,0
			c0.332-0.017,0.586-0.3,0.568-0.632c-0.037-0.712-0.129-1.636-0.5-2.457c-0.137-0.304-0.491-0.438-0.795-0.302
			c-0.303,0.137-0.437,0.493-0.301,0.795C42.329,46.105,42.45,46.731,42.496,47.63z"/>
		<path style="fill:#010002;" d="M36.615,50.364c-0.28-0.177-0.652-0.095-0.831,0.187c-0.449,0.709-0.896,1.172-1.359,1.416
			c-0.293,0.152-0.407,0.517-0.251,0.811c0.105,0.205,0.314,0.321,0.532,0.321c0.094,0,0.188-0.022,0.276-0.067
			c0.656-0.345,1.25-0.945,1.817-1.835C36.977,50.916,36.895,50.543,36.615,50.364z"/>
		<path style="fill:#010002;" d="M38.455,46.141c-0.307-0.128-0.657,0.017-0.783,0.325l-0.268,0.65
			c-0.195,0.484-0.397,0.979-0.61,1.467c-0.134,0.303,0.005,0.656,0.31,0.793c0.078,0.031,0.16,0.049,0.24,0.049
			c0.23,0,0.452-0.135,0.551-0.359c0.217-0.496,0.422-1.002,0.623-1.495l0.266-0.646C38.908,46.621,38.762,46.267,38.455,46.141z"/>
		<path style="fill:#010002;" d="M40.484,44.212c0.043,0,0.086,0.012,0.145,0.033c0.061,0.021,0.118,0.049,0.176,0.074
			c0.299,0.137,0.657,0.008,0.797-0.292c0.142-0.301,0.01-0.657-0.291-0.799c-0.078-0.034-0.158-0.067-0.237-0.101
			c-0.194-0.078-0.394-0.119-0.587-0.119c-0.975,0-1.579,0.973-1.777,1.291c-0.175,0.281-0.089,0.652,0.193,0.826
			c0.1,0.062,0.207,0.092,0.314,0.092c0.202,0,0.397-0.098,0.512-0.282C40.018,44.468,40.286,44.212,40.484,44.212z"/>
		<circle style="fill:#010002;" cx="44.6" cy="53.895" r="5.05"/>
	</g>
</g>
<g>
</g>
<g>
</g>
<g>
</g>
<g>
</g>
<g>
</g>
<g>
</g>
<g>
</g>
<g>
</g>
<g>
</g>
<g>
</g>
<g>
</g>
<g>
</g>
<g>
</g>
<g>
</g>
<g>
</g>
</svg>
