<?xml version="1.0" encoding="iso-8859-1"?>
<!-- Generator: Adobe Illustrator 16.0.0, SVG Export Plug-In . SVG Version: 6.00 Build 0)  -->
<!DOCTYPE svg PUBLIC "-//W3C//DTD SVG 1.1//EN" "http://www.w3.org/Graphics/SVG/1.1/DTD/svg11.dtd">
<svg version="1.1" id="Capa_1" xmlns="http://www.w3.org/2000/svg" xmlns:xlink="http://www.w3.org/1999/xlink" x="0px" y="0px"
	 width="394.244px" height="394.244px" viewBox="0 0 394.244 394.244" style="enable-background:new 0 0 394.244 394.244;"
	 xml:space="preserve">
<g>
	<g>
		<path d="M394.244,164.049c0.014-8.941-6.458-12.873-14.39-8.732c0,0-45.883,25.185-46.94,25.958
			c-10.767,7.876,3.881,1.426,3.881,49.946c0,46.302-14.35,38.79-3.881,47.108c1.025,0.814,46.979,29.301,46.979,29.301
			c7.693,4.559,14.003,0.968,14.015-7.979l0.046-31.177c0.016-8.942-10.329-35.032-10.329-37.013
			c0-1.936,10.562-29.155,10.573-38.095L394.244,164.049z"/>
		<path d="M213.783,145.655c0.207-0.944,0.322-1.921,0.322-2.928c0-7.532-6.104-13.638-13.639-13.638h-0.27
			c0.496-1.168,0.77-2.453,0.77-3.802c0-5.38-4.359-9.741-9.742-9.741h-10.612v-28.83c0-2.724-1.209-5.162-3.108-6.824
			c-1.658-1.833-4.051-2.994-6.719-2.994h-27.271c-5.005,0-9.064,4.057-9.064,9.062c0,5.006,4.059,9.064,9.064,9.064h18.973v20.521
			h-18.296c-5.382,0-9.742,4.361-9.742,9.741c0,1.349,0.274,2.633,0.77,3.802h-0.603c-7.534,0-13.639,6.106-13.639,13.638
			c0,0.707,0.07,1.395,0.174,2.072C51.721,153.819,0,188.508,0,229.933c0,48.275,70.262,87.413,156.938,87.413
			c128.273,0,155.418-34.507,160.79-42.685c4.807-7.318,8.432-15.066,8.432-44.832c0-31.082-3.197-36.78-8.432-44.508
			C313.236,178.694,286.92,154.376,213.783,145.655z M90.793,255.027c-16.008,0-28.984-12.979-28.984-28.984
			c0-16.008,12.976-28.985,28.984-28.985c16.006,0,28.984,12.978,28.984,28.985C119.777,242.048,106.799,255.027,90.793,255.027z
			 M167.29,255.027c-16.01,0-28.988-12.979-28.988-28.984c0-16.008,12.978-28.985,28.988-28.985
			c16.006,0,28.982,12.978,28.982,28.985C196.272,242.048,183.296,255.027,167.29,255.027z M243.786,255.027
			c-16.008,0-28.985-12.979-28.985-28.984c0-16.008,12.978-28.985,28.985-28.985c16.006,0,28.984,12.978,28.984,28.985
			C272.77,242.048,259.792,255.027,243.786,255.027z"/>
	</g>
</g>
<g>
</g>
<g>
</g>
<g>
</g>
<g>
</g>
<g>
</g>
<g>
</g>
<g>
</g>
<g>
</g>
<g>
</g>
<g>
</g>
<g>
</g>
<g>
</g>
<g>
</g>
<g>
</g>
<g>
</g>
</svg>
