<?xml version="1.0" encoding="iso-8859-1"?>
<!-- Generator: Adobe Illustrator 16.0.0, SVG Export Plug-In . SVG Version: 6.00 Build 0)  -->
<!DOCTYPE svg PUBLIC "-//W3C//DTD SVG 1.1//EN" "http://www.w3.org/Graphics/SVG/1.1/DTD/svg11.dtd">
<svg version="1.1" id="Capa_1" xmlns="http://www.w3.org/2000/svg" xmlns:xlink="http://www.w3.org/1999/xlink" x="0px" y="0px"
	 width="458.718px" height="458.718px" viewBox="0 0 458.718 458.718" style="enable-background:new 0 0 458.718 458.718;"
	 xml:space="preserve">
<g>
	<path d="M399.144,327.588c32.858,0,59.574-26.733,59.574-59.579c0-25.089-15.732-46.841-38.053-55.509
		c1.399-5.104,2.12-10.4,2.12-15.753c0-32.867-26.733-59.583-59.58-59.583c-27.622,0-50.843,18.912-57.55,44.457
		c-1.633-0.652-3.291-1.279-4.972-1.829c2.618-7.74,3.963-15.871,3.963-24.133c0-41.775-33.987-75.768-75.769-75.768
		c-41.787,0-75.771,33.993-75.771,75.768c0,8.608,1.462,17.081,4.278,25.1c-2.165,0.799-4.179,1.889-6.245,2.864
		c-5.996-26.556-29.739-46.465-58.084-46.465c-32.853,0-59.577,26.721-59.577,59.582c0,5.651,0.805,11.238,2.375,16.601
		C14.564,222.552,0,243.731,0,268.009c0,32.846,26.727,59.573,59.57,59.573c7.452,0,14.682-1.555,21.497-4.222l0.006,29.021H31.39
		c-7.305,0-13.229,5.927-13.229,13.217c0,7.308,5.93,13.229,13.229,13.229h114.277h11.517h144.37h13.842h111.947
		c7.308,0,13.229-5.927,13.229-13.229c0-7.296-5.933-13.217-13.229-13.217h-49.672l-0.006-29.021
		C384.462,326.033,391.693,327.588,399.144,327.588z M145.661,352.388h-38.143l-0.006-29.027c6.8,2.673,14.045,4.228,21.485,4.228
		c9.154,0,17.802-2.138,25.548-5.836c8.989,3.746,18.822,5.836,29.135,5.836c11.793,0,23.259-2.822,33.615-7.98v32.78h-60.117
		H145.661z M315.383,352.388h-13.841h-57.796v-32.78c10.364,5.158,21.833,7.98,33.614,7.98c9.83,0,19.191-1.934,27.809-5.356
		c7.488,3.423,15.787,5.356,24.542,5.356c7.458,0,14.693-1.555,21.485-4.228l0.012,29.027H315.383z"/>
</g>
<g>
</g>
<g>
</g>
<g>
</g>
<g>
</g>
<g>
</g>
<g>
</g>
<g>
</g>
<g>
</g>
<g>
</g>
<g>
</g>
<g>
</g>
<g>
</g>
<g>
</g>
<g>
</g>
<g>
</g>
</svg>
